<svg width="448" height="87" viewBox="0 0 448 87" fill="none" xmlns="http://www.w3.org/2000/svg">
<path fill-rule="evenodd" clip-rule="evenodd" d="M295.063 -2.91213e-05H280.807V2.22084H295.063V-2.91213e-05ZM295.177 2.51851H297.284V4.73938H295.177V2.51851ZM299.641 4.94541H297.534V9.44438H299.641V4.94541ZM214.946 56.1513H193.539V48.9736H207.807V27.4518H193.528V48.9736H186.4V27.4518V20.274H193.539H207.818V5.92998H214.958V56.1513H214.946ZM85.8442 34.6295H78.7047V27.4518H64.4372V34.6295H78.7047V41.8073H64.4372V48.985H78.6478V56.1284L64.4372 56.1628L57.2978 56.1284V48.985V27.4632V20.2511L78.7047 20.2855H85.8442V27.4632V34.6295ZM49.9534 56.1398H42.8139V27.4403H28.5464V56.1398H21.407V27.4403H7.13945V56.1398H0V20.2626H42.8253V27.4403H49.9647V56.1398H49.9534ZM100.317 27.4403H108.321L108.401 20.2626H93.1772V56.1398H100.317V27.4403ZM122.885 56.1628V48.985L143.165 48.9507V56.1284L122.885 56.1628ZM122.885 48.985H115.746V27.4632V20.2511L122.885 20.2855L143.165 20.2511V27.4289L122.885 27.4632V48.985ZM157.648 56.1856H179.055H179.067V27.4746H171.927V20.2969L150.52 20.2626V27.4403L171.927 27.4746V34.6524H157.648H150.509V41.8301V49.0079V56.1513L157.648 56.1856ZM171.916 41.8416V49.0193H157.637V41.8416H171.916ZM243.698 48.9507V27.4289H250.837V48.9507V56.1284H222.416L222.279 48.9507V27.4289L222.416 20.2511H243.698V27.4289H229.419V48.9507H243.698ZM312.302 14.7562H266.403C265.993 14.7562 265.663 15.0882 265.663 15.5003V15.7636C265.663 16.1757 265.993 16.5077 266.403 16.5077L312.496 16.4046C312.496 16.4046 314.694 16.2902 314.83 18.6255L315.024 65.7102C315.138 66.9809 314.238 67.4159 313.077 67.3472L304.138 67.2327C302.157 67.3128 300.517 68.801 300.278 70.7815L300.107 83.6602C300.107 83.6602 300.221 85.3087 298.422 85.3087C295.491 85.3087 287.443 85.3394 280.02 85.3678C272.417 85.3968 265.47 85.4233 265.355 85.4118C264.695 85.3431 263.829 85.1255 263.681 83.8549C263.678 83.8178 263.669 78.9183 263.657 71.9247V71.9028L263.657 71.7616C263.631 57.1603 263.591 33.6075 263.545 25.9521C263.545 25.54 263.214 25.2194 262.804 25.2194C262.395 25.2194 262.064 25.5514 262.064 25.9635V83.6717C262.19 85.6521 263.283 86.7855 265.07 86.9457L299.458 86.9686C300.734 86.9686 301.952 86.3963 302.76 85.4118L315.684 69.7398C316.254 69.0415 316.572 68.1714 316.561 67.267L316.367 18.6026C316.242 16.6222 314.978 14.9164 312.302 14.7562ZM299.834 9.71913H301.941V14.2181H299.834V9.71913ZM273.895 9.77638H276.002V14.2753H273.895V9.77638ZM278.302 5.00266H276.195V9.50163H278.302V5.00266ZM278.552 2.57573H280.659V4.7966H278.552V2.57573ZM354.388 49.0193H347.282V56.1627H333.072V70.438H325.966V27.6005H325.898V20.4571H347.282H354.388V27.6005V49.0193ZM347.499 48.7903L347.294 27.5204L333.094 27.6005V49.0193L347.499 48.7903ZM369.099 27.383H375.544V20.3541L362.005 20.48V56.1856H369.11L369.099 27.383ZM425.873 56.1971H418.779V27.3945H425.873V56.1971ZM418.768 27.3945H404.569V56.1971H397.463V20.4915H418.768V27.3945ZM383.15 20.5487H390.256V27.4517H383.15V20.5487ZM390.256 34.7096H383.15V56.1283H390.256V34.7096ZM432.865 56.2886H440.038V49.8321V27.4861H447.667V20.4571H440.038V10.5548H432.865V56.2886Z" fill="black"/>
</svg>
